<?xml version="1.0" encoding="UTF-8"?>
<!DOCTYPE svg PUBLIC "-//W3C//DTD SVG 1.1//EN" "http://www.w3.org/Graphics/SVG/1.1/DTD/svg11.dtd">
<!-- Creator: CorelDRAW -->
<svg xmlns="http://www.w3.org/2000/svg" xml:space="preserve" width="2048px" height="2048px" style="shape-rendering:geometricPrecision; text-rendering:geometricPrecision; image-rendering:optimizeQuality; fill-rule:evenodd; clip-rule:evenodd"
viewBox="0 0 2048 2048"
 xmlns:xlink="http://www.w3.org/1999/xlink">
 <defs>
  <style type="text/css">
   <![CDATA[
    .fil2 {fill:none}
    .fil7 {fill:#455A64}
    .fil3 {fill:#B0B0B0}
    .fil4 {fill:#BDBDBD}
    .fil1 {fill:#F4511E}
    .fil0 {fill:#FF8A65}
    .fil5 {fill:#455A64;fill-rule:nonzero}
    .fil6 {fill:#558B2F;fill-rule:nonzero}
   ]]>
  </style>
   <clipPath id="id0">
    <path d="M1024 0c565.539,0 1024,458.461 1024,1024 0,565.539 -458.461,1024 -1024,1024 -565.539,0 -1024,-458.461 -1024,-1024 0,-565.539 458.461,-1024 1024,-1024z"/>
   </clipPath>
 </defs>
 <g id="Layer_x0020_1">
  <metadata id="CorelCorpID_0Corel-Layer"/>
  <path class="fil0" d="M1024 0c565.539,0 1024,458.461 1024,1024 0,565.539 -458.461,1024 -1024,1024 -565.539,0 -1024,-458.461 -1024,-1024 0,-565.539 458.461,-1024 1024,-1024z"/>
  <g style="clip-path:url(#id0)">
   <g id="_461751512">
    <g>
     <polygon id="_4801323041" class="fil1" points="1479.06,864.876 2614.94,2000.76 2513.95,2015.97 1378.07,880.087 "/>
     <polygon id="_480125992" class="fil1" points="1556.13,805.99 2692.01,1941.87 2695.5,1965 1559.62,829.113 "/>
     <polygon id="_480129544" class="fil1" points="1520.93,886.169 2656.81,2022.05 2591.47,2121.05 1455.58,985.164 "/>
     <polygon id="_480111328" class="fil1" points="1584,991.011 2719.88,2126.89 2673.65,2133.84 1537.77,997.954 "/>
     <polygon id="_480111064" class="fil1" points="1559.62,829.113 2695.5,1965 2719.88,2126.89 1584,991.011 "/>
     <polygon id="_480105856" class="fil1" points="1488.02,1009.33 2623.91,2145.22 2600.68,2183.41 1464.8,1047.52 "/>
     <polygon id="_480105832" class="fil1" points="1464.8,1047.52 2600.68,2183.41 2566.89,2158.28 1431.01,1022.39 "/>
     <polygon id="_480109528" class="fil1" points="1431.01,1022.39 2566.89,2158.28 2538.73,2200.93 1402.85,1065.05 "/>
     <polygon id="_480105568" class="fil1" points="1402.85,1065.05 2538.73,2200.93 2528.61,2216.27 1392.73,1080.39 "/>
     <polygon id="_480105424" class="fil1" points="1392.73,1080.39 2528.61,2216.27 2527.45,2556.53 1391.57,1420.65 "/>
     <polygon id="_480105328" class="fil1" points="1391.57,1420.65 2527.45,2556.53 2107.32,2556.53 971.439,1420.65 "/>
     <polygon id="_480104080" class="fil1" points="971.439,1420.65 2107.32,2556.53 2107.23,2556.53 971.354,1420.65 "/>
     <polygon id="_480120352" class="fil1" points="549.548,1001.18 1685.43,2137.06 1623.11,2183.41 487.224,1047.52 "/>
     <polygon id="_480129376" class="fil1" points="971.354,1420.65 2107.23,2556.53 1685.43,2556.53 549.548,1420.65 "/>
    </g>
    <polygon id="_461722520" class="fil1" points="987.75,636.624 1418.09,957.232 1479.06,864.876 1378.07,880.087 1371.13,833.857 1533.03,809.47 1556.13,805.99 1559.62,829.113 1584,991.011 1537.77,997.954 1520.93,886.169 1455.58,985.164 1488.02,1009.33 1464.8,1047.52 1431.01,1022.39 1402.85,1065.05 1392.73,1080.39 1391.57,1420.65 971.439,1420.65 971.354,1420.65 549.548,1420.65 549.548,1001.18 487.224,1047.52 464,1009.33 964.275,636.624 975.839,627.352 976.012,627.491 976.185,627.352 "/>
   </g>
  </g>
  <path class="fil2" d="M1024 0c565.539,0 1024,458.461 1024,1024 0,565.539 -458.461,1024 -1024,1024 -565.539,0 -1024,-458.461 -1024,-1024 0,-565.539 458.461,-1024 1024,-1024z"/>
  <polygon class="fil3" points="971.354,1420.65 549.548,1420.65 549.548,999.65 971.354,687.973 "/>
  <polygon class="fil4" points="992.716,672.188 1393.16,952.861 1391.57,1420.65 971.439,1420.65 971.354,1420.65 971.354,687.973 972.098,687.423 "/>
  <polygon class="fil5" points="976.012,684.151 975.935,684.087 487.224,1047.52 464,1009.33 964.275,636.624 975.839,627.352 976.012,627.491 976.185,627.352 987.75,636.624 1488.02,1009.33 1464.8,1047.52 976.09,684.087 "/>
  <polygon class="fil6" points="1051.8,1190.09 1168.75,1049.76 1182.26,1033.54 1199.72,1045.37 1248.54,1078.43 1308.25,1003.9 1320.88,988.132 1338.31,998.423 1376.15,1020.78 1479.06,864.876 1378.07,880.087 1371.13,833.857 1533.03,809.47 1556.13,805.99 1559.62,829.113 1584,991.011 1537.77,997.954 1520.93,886.169 1402.85,1065.05 1390.63,1083.56 1371.51,1072.27 1331.97,1048.91 1271.49,1124.41 1258.08,1141.15 1240.24,1129.07 1191.05,1095.75 1087.62,1219.88 "/>
  <path class="fil7" d="M1057.88 917.776c0,45.2115 -36.652,81.8623 -81.8634,81.8623 -45.2103,0 -81.8623,-36.6508 -81.8623,-81.8623 0,-107.68 163.726,-107.68 163.726,0z"/>
 </g>
</svg>
