<?xml version="1.0" encoding="UTF-8"?>
<!DOCTYPE svg PUBLIC "-//W3C//DTD SVG 1.1//EN" "http://www.w3.org/Graphics/SVG/1.1/DTD/svg11.dtd">
<!-- Creator: CorelDRAW -->
<svg xmlns="http://www.w3.org/2000/svg" xml:space="preserve" width="6.82666in" height="6.82666in" style="shape-rendering:geometricPrecision; text-rendering:geometricPrecision; image-rendering:optimizeQuality; fill-rule:evenodd; clip-rule:evenodd"
viewBox="0 0 6.82666 6.82666"
 xmlns:xlink="http://www.w3.org/1999/xlink">
 <defs>
  <style type="text/css">
   <![CDATA[
    .fil0 {fill:none}
    .fil8 {fill:#0277BD}
    .fil9 {fill:#BDBDBD}
    .fil7 {fill:#F1C27D}
    .fil6 {fill:#84655A;fill-rule:nonzero}
    .fil5 {fill:#8D6E63;fill-rule:nonzero}
    .fil1 {fill:#A1887F;fill-rule:nonzero}
    .fil4 {fill:#BCAAA4;fill-rule:nonzero}
    .fil3 {fill:#D7CCC8;fill-rule:nonzero}
    .fil2 {fill:#EF5350;fill-rule:nonzero}
   ]]>
  </style>
 </defs>
 <g id="Layer_x0020_1">
  <metadata id="CorelCorpID_0Corel-Layer"/>
  <g id="_250320592">
   <rect id="_250320784" class="fil0" width="6.82666" height="6.82666"/>
   <rect id="_250320904" class="fil0" x="0.853331" y="0.853331" width="5.12" height="5.12"/>
  </g>
  <g id="_250319536">
   <g>
    <path id="_250320400" class="fil1" d="M5.2682 2.20055l0 1.78687 -3.93701e-006 0.0674921 -0.0674882 0c-1.47844,0 -0.886925,0 -2.36535,0l-0.0674921 0 0 -0.0674921 0 -1.78687 2.50034 0z"/>
    <polygon id="_250319776" class="fil2" points="4.66351,0.853335 4.89519,0.853335 4.94807,0.853335 4.94807,0.928024 4.94807,1.41883 4.94807,1.49352 4.89519,1.49352 4.66351,1.49352 4.61063,1.49352 4.61063,1.41883 4.61063,0.928024 4.61063,0.853335 "/>
    <polygon id="_250319824" class="fil3" points="5.2682,2.20055 5.2682,3.98742 5.2682,4.05491 5.20071,4.05491 4.38119,4.05491 4.38119,3.98742 4.38119,3.0265 4.38119,2.959 4.3137,2.959 3.72236,2.959 3.65487,2.959 3.65487,3.0265 3.65487,3.98742 3.65487,4.05491 2.83536,4.05491 2.76787,4.05491 2.76787,3.98742 2.76787,2.20055 "/>
    <polygon id="_250319752" class="fil4" points="5.2682,2.20055 5.2682,2.34234 2.76787,2.34234 2.76787,2.20055 "/>
    <polygon id="_250320376" class="fil5" points="5.27466,1.35854 5.59253,2.23269 2.44354,2.23269 2.76141,1.35854 "/>
    <path id="_250320256" class="fil6" d="M5.12211 2.23269l-0.0548386 0 0 -0.874154 0.0548386 0 0 0.874154zm-0.239256 0l-0.0548386 0 0 -0.874154 0.0548386 0 0 0.874154zm-0.239256 0l-0.0548386 0 0 -0.874154 0.0548386 0 0 0.874154zm-0.239256 0l-0.0548386 0 0 -0.874154 0.0548386 0 0 0.874154zm-0.23926 0l-0.0548346 0 0 -0.874154 0.0548346 0 0 0.874154zm-0.239256 0l-0.0548346 0 0 -0.874154 0.0548346 0 0 0.874154zm-0.239256 0l-0.0548346 0 0 -0.874154 0.0548346 0 0 0.874154zm-0.239256 0l-0.0548346 0 0 -0.874154 0.0548346 0 0 0.874154zm-0.239256 0l-0.0548346 0 0 -0.874154 0.0548346 0 0 0.874154zm-0.239256 0l-0.0548386 0 0 -0.874154 0.0548386 0 0 0.874154z"/>
   </g>
   <g>
    <path id="_250319632" class="fil7" d="M3.00847 5.15402c0.771039,0.24561 0.719496,0.284228 1.29164,-0.200846 0.114508,-0.132579 0.669618,-0.65487 0.783339,-0.230791 0.000374016,0.0643346 -0.0237677,0.132835 -0.0660354,0.181539 -0.0244291,0.0281417 -0.0506772,0.054626 -0.076622,0.0813465 -0.0387598,0.0399252 -0.0778898,0.0794961 -0.11713,0.118953 -0.0639961,0.0643661 -0.128189,0.128531 -0.192949,0.192122 -0.0681102,0.0668898 -0.136366,0.133646 -0.203772,0.201252 -1.04037,1.04343 -1.54797,0.0541693 -2.38373,-0.00729528l-0.0326339 -0.00239764 0 -1.10365c0.385177,-0.0362323 1.17808,0.0276732 1.85463,0.448528 0.111406,0.114984 0.0800157,0.210957 -0.0194094,0.32802 -0.265807,0.143618 -0.989642,-0.214949 -0.837323,-0.00677953z"/>
    <path id="_250319320" class="fil8" d="M1.2902 4.1217l0.75828 0c0.0308386,0 0.0560669,0.0295157 0.0560669,0.0655866l0 1.44667c0,0.0360709 -0.0252323,0.0655827 -0.0560669,0.0655827l-0.75828 0c-0.0308346,0 -0.0560669,-0.0295118 -0.0560669,-0.0655827l0 -1.44667c0,-0.0360748 0.0252283,-0.0655866 0.0560669,-0.0655866z"/>
    <circle id="_250319200" class="fil9" cx="1.83656" cy="4.42672" r="0.115563"/>
   </g>
  </g>
 </g>
</svg>
